<?xml version="1.0" standalone="no"?><!DOCTYPE svg PUBLIC "-//W3C//DTD SVG 1.1//EN" "http://www.w3.org/Graphics/SVG/1.1/DTD/svg11.dtd"><svg t="1571962265031" class="icon" viewBox="0 0 1024 1024" version="1.1" xmlns="http://www.w3.org/2000/svg" p-id="4977" xmlns:xlink="http://www.w3.org/1999/xlink" width="200" height="200"><defs><style type="text/css"></style></defs><path d="M929.792 0C980.992 0 1024 43.008 1024 94.208v835.584c0 51.2-40.96 94.208-94.208 94.208H94.208C43.008 1024 0 980.992 0 929.792V94.208C0 43.008 43.008 0 94.208 0h835.584z m-210.816 713.386667c9.898667-17.834667 13.909333-35.669333 7.936-59.477334 0-21.845333-3.968-41.685333-9.941333-57.6-5.973333-17.834667-15.872-31.701333-29.738667-45.610666-13.909333-13.909333-33.706667-25.813333-55.594667-37.717334-21.802667-11.904-51.584-23.808-83.328-33.706666-25.813333-7.936-49.621333-15.914667-67.456-23.850667a319.445333 319.445333 0 0 1-45.653333-23.808c-11.946667-9.898667-21.845333-19.84-27.776-29.738667a74.24 74.24 0 0 1-9.941333-35.754666c0-11.904 3.968-23.808 9.941333-33.706667 5.973333-9.941333 13.866667-17.877333 23.808-25.813333 9.898667-5.973333 21.802667-11.904 33.706667-15.872 11.946667-3.968 27.818667-5.973333 41.685333-5.973334 29.781333 0 57.557333 5.973333 79.36 13.909334 17.92 7.936 33.749333 15.872 49.621333 27.776l63.530667-57.557334a306.944 306.944 0 0 0-71.466667-37.674666c-33.706667-11.946667-75.392-17.877333-125.013333-17.877334-29.781333 0-57.557333 3.968-81.365333 11.946667a215.466667 215.466667 0 0 0-63.488 33.706667 143.104 143.104 0 0 0-41.685334 49.621333c-9.898667 19.84-15.872 39.68-15.872 63.488 0 23.808 3.968 43.648 13.909334 61.525333 9.898667 17.834667 21.802667 31.744 37.674666 45.653334 15.872 13.866667 33.749333 25.770667 55.594667 35.712 21.802667 9.898667 45.653333 19.84 69.461333 27.733333 27.733333 9.941333 51.584 17.92 69.418667 25.856 19.882667 7.936 33.749333 15.872 45.653333 23.808 13.909333 7.936 21.845333 17.834667 27.776 27.733333 5.973333 9.941333 7.936 21.888 7.936 33.792 0 13.866667-3.968 25.770667-9.898666 35.712-5.973333 9.898667-13.909333 17.834667-23.808 25.770667-9.941333 5.973333-21.845333 11.946667-33.749334 15.914667-11.946667 3.968-25.813333 5.973333-39.68 5.973333-31.744 0-61.525333-5.973333-89.301333-13.952-21.845333-7.936-47.658667-21.802667-71.466667-37.674667l-65.493333 59.52c11.946667 9.941333 25.813333 17.877333 37.717333 23.808 17.877333 9.941333 35.712 17.877333 55.552 23.808 19.882667 5.973333 41.685333 11.946667 63.530667 13.909334 23.808 1.962667 49.621333 3.968 77.397333 3.968 29.738667 0 57.557333-5.973333 83.328-13.909334a203.946667 203.946667 0 0 0 65.493334-33.706666c17.877333-15.872 31.744-31.744 41.685333-49.621334z" fill="#222222" p-id="4978"></path></svg>