<?xml version="1.0" standalone="no"?><!DOCTYPE svg PUBLIC "-//W3C//DTD SVG 1.1//EN" "http://www.w3.org/Graphics/SVG/1.1/DTD/svg11.dtd"><svg t="1571961526888" class="icon" viewBox="0 0 1024 1024" version="1.1" xmlns="http://www.w3.org/2000/svg" p-id="3509" xmlns:xlink="http://www.w3.org/1999/xlink" width="200" height="200"><defs><style type="text/css"></style></defs><path d="M877.645 62C924.2 62 962 99.76 962 146.395v731.25C962 924.2 924.24 962 877.605 962h-731.21A84.355 84.355 0 0 1 62 877.605v-731.21C62 99.76 99.76 62 146.395 62h731.25z m28.105 225V174.5c0-31.09-25.2-56.25-56.25-56.25h-675c-31.09 0-56.25 25.2-56.25 56.25V287h787.5z m0 562.5V343.25h-787.5V849.5c0 31.09 25.2 56.25 56.25 56.25h675c31.09 0 56.25-25.2 56.25-56.25z m-703.145-675a28.105 28.105 0 1 1 0 56.25 28.105 28.105 0 0 1 0-56.25z m112.5 0a28.105 28.105 0 1 0 0 56.25 28.105 28.105 0 0 0 0-56.25z m112.5 0a28.105 28.105 0 1 1 0 56.25 28.105 28.105 0 0 1 0-56.25z m-65.619 261.695H549.76c31.296 0 55.31 9 72.041 26.919 16.773 17.959 25.16 40.172 25.16 66.681 0 22.173-5.974 41.237-17.96 57.15-7.977 10.596-19.636 18.941-34.977 25.119 23.318 6.463 40.5 17.631 51.463 33.422 11.046 15.832 16.528 35.673 16.528 59.605 0 19.514-3.928 37.023-11.741 52.568-7.814 15.546-18.532 27.818-32.114 36.9-8.427 5.646-21.109 9.736-38.045 12.314-22.623 3.436-37.596 5.113-45 5.113H362.027v-375.79z m101.21 147.396h43.609c15.627 0 26.509-3.11 32.645-9.368 6.136-6.218 9.205-15.218 9.205-27 0-10.964-3.069-19.514-9.205-25.65-6.136-6.137-16.773-9.246-31.99-9.246h-44.265v71.264z m0 147.682h51.136c17.263 0 29.454-3.56 36.532-10.637 7.077-7.118 10.636-16.65 10.636-28.636 0-11.045-3.518-20.045-10.514-26.755-7.036-6.75-19.309-10.145-36.9-10.145h-50.89v76.132z" p-id="3510"></path></svg>