<?xml version="1.0" standalone="no"?><!DOCTYPE svg PUBLIC "-//W3C//DTD SVG 1.1//EN" "http://www.w3.org/Graphics/SVG/1.1/DTD/svg11.dtd"><svg t="1571961357568" class="icon" viewBox="0 0 1024 1024" version="1.1" xmlns="http://www.w3.org/2000/svg" p-id="2739" xmlns:xlink="http://www.w3.org/1999/xlink" width="200" height="200"><defs><style type="text/css"></style></defs><path d="M815.637333 271.296l-49.408-59.733333A51.626667 51.626667 0 0 0 725.333333 192H298.666667c-16.704 0-31.296 7.466667-41.237334 19.562667l-49.066666 59.733333A69.610667 69.610667 0 0 0 192 316.437333v444.458667C192 800 224 832 263.104 832h497.792C800 832 832 800 832 760.896V316.437333c0-17.066667-6.037333-33.066667-16.362667-45.141333zM512 707.562667L316.437333 512h124.458667v-71.104h142.208V512h124.458667L512 707.562667zM267.370667 263.104l28.8-35.541333h426.666666l33.429334 35.541333H267.370667z" p-id="2740"></path></svg>