<svg xmlns="http://www.w3.org/2000/svg" width="1544.013" height="362.891" viewBox="0 0 1544.013 362.891">
  <g id="hill-complete" transform="translate(-376.023 -717.1)">
    <g id="lands" transform="translate(376.023 966.385)">
      <path id="land1" d="M2710.921,1088.752s-69.9-71.888-225.642-71.888-235,88.669-316.229,90.575c-34.115.8-102.71-31.012-172.462-35.1-54.415-3.28-126.91,24.149-126.91,24.149s-48.073,14.769-147.167,11.489c-47.069-1.558-146.791-31.219-206.455-35.638s-138.684,19.308-249.281,46.873l1444.088,8.757Z" transform="translate(-1166.908 -1016.864)" fill="#cfcfcf"/>
      <path id="land2" d="M1402.141,1081.085c112.765-24.861,236.533-.148,332.154,13.233,130.278,18.094,180.825-46.412,249.965-48.35,53.86-1.509,116.278,42.542,202.489,47.592s227.03-89.042,429.439-61.873c75.871,12.217,140.014,60.578,140.014,60.578v17.027l-1544,.01S1289.376,1105.946,1402.141,1081.085Z" transform="translate(-1212.2 -995.697)" fill="#e6e6e6"/>
    </g>
    <g id="trees" transform="translate(1302 999.631)">
      <g id="Grupo_19" data-name="Grupo 19">
        <circle id="Elipse_9" data-name="Elipse 9" cx="3.916" cy="3.916" r="3.916" transform="translate(3.916 6.526)" fill="#cfcfcf"/>
        <circle id="Elipse_8" data-name="Elipse 8" cx="3.916" cy="3.916" r="3.916" transform="translate(1.305 9.136)" fill="#cfcfcf"/>
        <circle id="Elipse_13" data-name="Elipse 13" cx="3.916" cy="3.916" r="3.916" transform="translate(0 13.052)" fill="#f3f3f3"/>
        <circle id="Elipse_12" data-name="Elipse 12" cx="7.179" cy="7.179" r="7.179" transform="translate(2.61 9.136)" fill="#cfcfcf"/>
        <circle id="Elipse_10" data-name="Elipse 10" cx="5.221" cy="5.221" r="5.221" transform="translate(9.136 7.831)" fill="#d8d8d8"/>
        <circle id="Elipse_11" data-name="Elipse 11" cx="1.958" cy="1.958" r="1.958" transform="translate(9.136 7.831)" fill="#d8d8d8"/>
        <rect id="Rectángulo_7" data-name="Rectángulo 7" width="3.916" height="22.189" transform="translate(7.831 22.189)" fill="#cfcfcf"/>
        <circle id="Elipse_9-2" data-name="Elipse 9" cx="5.221" cy="5.221" r="5.221" transform="translate(15.662)" fill="#cfcfcf"/>
        <circle id="Elipse_8-2" data-name="Elipse 8" cx="5.221" cy="5.221" r="5.221" transform="translate(11.747 3.916)" fill="#cfcfcf"/>
        <circle id="Elipse_13-2" data-name="Elipse 13" cx="5.221" cy="5.221" r="5.221" transform="translate(10.442 9.136)" fill="#d8d8d8"/>
        <circle id="Elipse_12-2" data-name="Elipse 12" cx="9.789" cy="9.789" r="9.789" transform="translate(13.052 3.916)" fill="#cfcfcf"/>
        <circle id="Elipse_11-2" data-name="Elipse 11" cx="2.61" cy="2.61" r="2.61" transform="translate(22.189 2.61)" fill="#f3f3f3"/>
        <ellipse id="Elipse_10-2" data-name="Elipse 10" cx="7.179" cy="6.526" rx="7.179" ry="6.526" transform="translate(22.189 2.61)" fill="#d8d8d8"/>
        <rect id="Rectángulo_7-2" data-name="Rectángulo 7" width="5.221" height="30.02" transform="translate(20.883 20.883)" fill="#cfcfcf"/>
      </g>
      <g id="Grupo_18" data-name="Grupo 18" transform="translate(32.63 14.357)">
        <circle id="Elipse_9-3" data-name="Elipse 9" cx="3.916" cy="3.916" r="3.916" transform="translate(3.916 1.305)" fill="#f3f3f3"/>
        <circle id="Elipse_8-3" data-name="Elipse 8" cx="3.916" cy="3.916" r="3.916" transform="translate(1.305 3.916)" fill="#cfcfcf"/>
        <circle id="Elipse_13-3" data-name="Elipse 13" cx="3.916" cy="3.916" r="3.916" transform="translate(0 7.831)" fill="#f3f3f3"/>
        <circle id="Elipse_12-3" data-name="Elipse 12" cx="7.179" cy="7.179" r="7.179" transform="translate(2.61 3.916)" fill="#cfcfcf"/>
        <circle id="Elipse_11-3" data-name="Elipse 11" cx="3.263" cy="3.263" r="3.263" transform="translate(6.526)" fill="#d8d8d8"/>
        <circle id="Elipse_10-3" data-name="Elipse 10" cx="5.221" cy="5.221" r="5.221" transform="translate(11.136 7.61)" fill="#f3f3f3"/>
        <rect id="Rectángulo_7-3" data-name="Rectángulo 7" width="3.916" height="22.189" transform="translate(7.831 16.968)" fill="#cfcfcf"/>
      </g>
    </g>
    <g id="globo" transform="translate(1430.083 950.258)">
      <line id="Línea_3" data-name="Línea 3" x2="19.905" y2="35.829" transform="translate(7.218 41.157)" fill="none" stroke="#d8d8d8" stroke-width="0.4"/>
      <line id="Línea_4" data-name="Línea 4" x2="1.991" y2="13.934" transform="translate(33.095 61.062)" fill="none" stroke="#d8d8d8" stroke-width="0.4"/>
      <line id="Línea_5" data-name="Línea 5" x1="19.905" y2="35.829" transform="translate(35.085 41.157)" fill="none" stroke="#d8d8d8" stroke-width="0.4"/>
      <line id="Línea_6" data-name="Línea 6" x1="1.991" y2="13.934" transform="translate(27.123 61.062)" fill="none" stroke="#d8d8d8" stroke-width="0.4"/>
      <line id="Línea_7" data-name="Línea 7" x2="8.162" transform="translate(26.982 74.996)" fill="none" stroke="#d8d8d8" stroke-width="0.3"/>
      <line id="Línea_8" data-name="Línea 8" x2="8.968" transform="translate(26.521 76.987)" fill="none" stroke="#d8d8d8" stroke-width="0.3"/>
      <line id="Línea_9" data-name="Línea 9" x1="0.759" y1="2.3" transform="translate(27.058 74.895)" fill="none" stroke="#d8d8d8" stroke-width="0.3"/>
      <rect id="Rectángulo_6" data-name="Rectángulo 6" width="8.957" height="9.682" transform="translate(26.526 76.987)" fill="#d8d8d8"/>
      <g id="ballon">
        <path id="Trazado_8" data-name="Trazado 8" d="M1304.573,920.92c-7.942-8.533-29.994-20.6-31.147-38.842.473-26.5,31.07-25.035,31.07-25.035Z" transform="translate(-1273.427 -857.029)" fill="#cfcfcf"/>
        <path id="Trazado_9" data-name="Trazado 9" d="M1273.427,920.92c7.942-8.533,29.994-20.6,31.147-38.842-.473-26.5-31.07-25.035-31.07-25.035Z" transform="translate(-1242.256 -857.029)" fill="#cfcfcf"/>
      </g>
      <line id="Línea_10" data-name="Línea 10" y1="2.3" x2="0.759" transform="translate(34.375 74.895)" fill="none" stroke="#d8d8d8" stroke-width="0.3"/>
      <rect id="Rectángulo_8" data-name="Rectángulo 8" width="0.96" height="63.373" transform="translate(30.726)" fill="#cfcfcf"/>
      <rect id="Rectángulo_9" data-name="Rectángulo 9" width="0.48" height="0.96" transform="translate(30.918 62.605)" fill="#cfcfcf"/>
    </g>
    <g id="farm" transform="translate(896.571 955.144)">
      <path id="roof" d="M22,0,44,41H0Z" transform="translate(7.429 0)" fill="#d8d8d8"/>
      <rect id="structure" width="44" height="68" transform="translate(7.429 41)" fill="#f3f3f3"/>
      <path id="Trazado_6" data-name="Trazado 6" d="M1395.583,1035.829h44v1.4s.316,2.606-20.561,2.606-23.435-2.606-23.435-2.606Z" transform="translate(-1388.154 -928.008)" fill="#f3f3f3"/>
      <path id="window2" d="M692.017,578.773a24.988,24.988,0,0,1,0-4.646c-.155-2.277,6.014-2.411,5.84,0,.1.139,0,3.233,0,3.233v1.413Z" transform="translate(-655.238 -514.232)" fill="#d8d8d8"/>
      <path id="window1" d="M692.017,578.773a24.988,24.988,0,0,1,0-4.646c-.155-2.277,6.014-2.411,5.84,0,.1.139,0,3.233,0,3.233v1.413Z" transform="translate(-675.295 -497.174)" fill="#d8d8d8"/>
      <g id="aspas" transform="translate(-3.978 8.005)">
        <line id="Línea_1" data-name="Línea 1" x1="59.681" y2="59.681" transform="translate(3.409 3.665)" fill="none" stroke="#cfcfcf" stroke-width="1"/>
        <line id="Línea_2" data-name="Línea 2" x2="59.681" y2="59.681" transform="translate(3.409 3.665)" fill="none" stroke="#cfcfcf" stroke-width="1"/>
        <rect id="Rectángulo_2" data-name="Rectángulo 2" width="4.969" height="12.778" transform="translate(9.242 51.151) rotate(45)" fill="#cfcfcf"/>
        <rect id="Rectángulo_3" data-name="Rectángulo 3" width="4.969" height="12.778" transform="translate(62.842 3.401) rotate(45)" fill="#cfcfcf"/>
        <rect id="Rectángulo_4" data-name="Rectángulo 4" width="4.969" height="12.778" transform="translate(50.857 57.465) rotate(-45)" fill="#cfcfcf"/>
        <rect id="Rectángulo_5" data-name="Rectángulo 5" width="4.969" height="12.778" transform="translate(3 3.992) rotate(-45)" fill="#cfcfcf"/>
        <g id="Elipse_2" data-name="Elipse 2" transform="translate(31.027 30.655)" fill="#cfcfcf" stroke="#cfcfcf" stroke-width="1">
          <circle cx="2.84" cy="2.84" r="2.84" stroke="none"/>
          <circle cx="2.84" cy="2.84" r="2.34" fill="none"/>
        </g>
      </g>
      <path id="door" d="M692.017,584.848c0-3.625-.286-6.648,0-9.053-.155-4.437,6.014-4.7,5.84,0,.1.272,0,6.3,0,6.3v2.755Z" transform="translate(-664.212 -474.223)" fill="#d8d8d8"/>
    </g>
    <g id="lamps" transform="translate(602.2 1011.644)">
      <g id="lamp">
        <line id="Línea_11" data-name="Línea 11" y1="43" transform="translate(0.3)" fill="none" stroke="#cfcfcf" stroke-width="1"/>
        <path id="light" d="M0,0H4A0,0,0,0,1,4,0V1A1,1,0,0,1,3,2H1A1,1,0,0,1,0,1V0A0,0,0,0,1,0,0Z" transform="translate(4 2.9)" fill="#fff"/>
        <path id="Rectángulo_10" data-name="Rectángulo 10" d="M1,0H7A1,1,0,0,1,8,1V3A0,0,0,0,1,8,3H1A1,1,0,0,1,0,2V1A1,1,0,0,1,1,0Z" fill="#cfcfcf"/>
      </g>
      <g id="lamp-2" data-name="lamp" transform="translate(58)">
        <line id="Línea_11-2" data-name="Línea 11" y1="43" transform="translate(0.3)" fill="none" stroke="#cfcfcf" stroke-width="1"/>
        <path id="light-2" data-name="light" d="M0,0H4A0,0,0,0,1,4,0V1A1,1,0,0,1,3,2H1A1,1,0,0,1,0,1V0A0,0,0,0,1,0,0Z" transform="translate(4 2.9)" fill="#fff"/>
        <path id="Rectángulo_10-2" data-name="Rectángulo 10" d="M1,0H7A1,1,0,0,1,8,1V3A0,0,0,0,1,8,3H1A1,1,0,0,1,0,2V1A1,1,0,0,1,1,0Z" fill="#cfcfcf"/>
      </g>
      <g id="lamp-3" data-name="lamp" transform="translate(116)">
        <line id="Línea_11-3" data-name="Línea 11" y1="43" transform="translate(0.3)" fill="none" stroke="#cfcfcf" stroke-width="1"/>
        <path id="light-3" data-name="light" d="M0,0H4A0,0,0,0,1,4,0V1A1,1,0,0,1,3,2H1A1,1,0,0,1,0,1V0A0,0,0,0,1,0,0Z" transform="translate(4 2.9)" fill="#fff"/>
        <path id="Rectángulo_10-3" data-name="Rectángulo 10" d="M1,0H7A1,1,0,0,1,8,1V3A0,0,0,0,1,8,3H1A1,1,0,0,1,0,2V1A1,1,0,0,1,1,0Z" fill="#cfcfcf"/>
      </g>
      <g id="lamp-4" data-name="lamp" transform="translate(174)">
        <line id="Línea_11-4" data-name="Línea 11" y1="43" transform="translate(0.3)" fill="none" stroke="#cfcfcf" stroke-width="1"/>
        <path id="light-4" data-name="light" d="M0,0H4A0,0,0,0,1,4,0V1A1,1,0,0,1,3,2H1A1,1,0,0,1,0,1V0A0,0,0,0,1,0,0Z" transform="translate(4 2.9)" fill="#fff"/>
        <path id="Rectángulo_10-4" data-name="Rectángulo 10" d="M1,0H7A1,1,0,0,1,8,1V3A0,0,0,0,1,8,3H1A1,1,0,0,1,0,2V1A1,1,0,0,1,1,0Z" fill="#cfcfcf"/>
      </g>
      <g id="lamp-5" data-name="lamp" transform="translate(232)">
        <line id="Línea_11-5" data-name="Línea 11" y1="43" transform="translate(0.3)" fill="none" stroke="#cfcfcf" stroke-width="1"/>
        <path id="light-5" data-name="light" d="M0,0H4A0,0,0,0,1,4,0V1A1,1,0,0,1,3,2H1A1,1,0,0,1,0,1V0A0,0,0,0,1,0,0Z" transform="translate(4 2.9)" fill="#fff"/>
        <path id="Rectángulo_10-5" data-name="Rectángulo 10" d="M1,0H7A1,1,0,0,1,8,1V3A0,0,0,0,1,8,3H1A1,1,0,0,1,0,2V1A1,1,0,0,1,1,0Z" fill="#cfcfcf"/>
      </g>
    </g>
    <g id="cloud4" transform="translate(1244 786.891)">
      <g id="graycloud">
        <circle id="Elipse_3" data-name="Elipse 3" cx="14" cy="14" r="14" transform="translate(0 11)" fill="#d8d8d8"/>
        <circle id="Elipse_4" data-name="Elipse 4" cx="13" cy="13" r="13" transform="translate(13 4)" fill="#d8d8d8"/>
        <ellipse id="Elipse_5" data-name="Elipse 5" cx="14" cy="13.5" rx="14" ry="13.5" transform="translate(23)" fill="#d8d8d8"/>
        <ellipse id="Elipse_6" data-name="Elipse 6" cx="14.5" cy="14" rx="14.5" ry="14" transform="translate(39 11)" fill="#d8d8d8"/>
        <ellipse id="Elipse_7" data-name="Elipse 7" cx="21" cy="9.5" rx="21" ry="9.5" transform="translate(13 24)" fill="#d8d8d8"/>
      </g>
      <g id="whitecloud" transform="translate(47 6)">
        <ellipse id="Elipse_3-2" data-name="Elipse 3" cx="4" cy="4.5" rx="4" ry="4.5" transform="translate(0 4)" fill="#fff"/>
        <ellipse id="Elipse_4-2" data-name="Elipse 4" cx="4.5" cy="5" rx="4.5" ry="5" transform="translate(4 1)" fill="#fff"/>
        <ellipse id="Elipse_5-2" data-name="Elipse 5" cx="4.5" cy="4" rx="4.5" ry="4" transform="translate(7)" fill="#fff"/>
        <ellipse id="Elipse_6-2" data-name="Elipse 6" cx="4" cy="4.5" rx="4" ry="4.5" transform="translate(13 4)" fill="#fff"/>
        <ellipse id="Elipse_7-2" data-name="Elipse 7" cx="6.5" cy="3" rx="6.5" ry="3" transform="translate(4 8)" fill="#fff"/>
      </g>
    </g>
    <g id="cloud3" transform="translate(1003 889.606)">
      <ellipse id="Elipse_3-3" data-name="Elipse 3" cx="13" cy="14.5" rx="13" ry="14.5" transform="translate(0 10)" fill="#efefef"/>
      <circle id="Elipse_4-3" data-name="Elipse 4" cx="13" cy="13" r="13" transform="translate(13 3)" fill="#efefef"/>
      <circle id="Elipse_5-3" data-name="Elipse 5" cx="13" cy="13" r="13" transform="translate(23)" fill="#efefef"/>
      <circle id="Elipse_6-3" data-name="Elipse 6" cx="14.5" cy="14.5" r="14.5" transform="translate(39 10)" fill="#efefef"/>
      <ellipse id="Elipse_7-3" data-name="Elipse 7" cx="21" cy="9" rx="21" ry="9" transform="translate(13 24)" fill="#efefef"/>
    </g>
    <g id="cloud2" transform="translate(813 731.1)">
      <g id="Grupo_5" data-name="Grupo 5">
        <ellipse id="Elipse_3-4" data-name="Elipse 3" cx="13" cy="14.5" rx="13" ry="14.5" transform="translate(0 10)" fill="#efefef"/>
        <ellipse id="Elipse_4-4" data-name="Elipse 4" cx="13.5" cy="13" rx="13.5" ry="13" transform="translate(12 3)" fill="#efefef"/>
        <ellipse id="Elipse_5-4" data-name="Elipse 5" cx="13.5" cy="13" rx="13.5" ry="13" transform="translate(23)" fill="#efefef"/>
        <ellipse id="Elipse_6-4" data-name="Elipse 6" cx="14" cy="14.5" rx="14" ry="14.5" transform="translate(39 10)" fill="#efefef"/>
        <ellipse id="Elipse_7-4" data-name="Elipse 7" cx="21.5" cy="9" rx="21.5" ry="9" transform="translate(12 24)" fill="#efefef"/>
      </g>
      <g id="Grupo_8" data-name="Grupo 8" transform="translate(48 27)">
        <ellipse id="Elipse_3-5" data-name="Elipse 3" cx="4.5" cy="4" rx="4.5" ry="4" transform="translate(13 5)" fill="#d8d8d8"/>
        <ellipse id="Elipse_4-5" data-name="Elipse 4" cx="4.5" cy="5" rx="4.5" ry="5" transform="translate(10 2)" fill="#d8d8d8"/>
        <circle id="Elipse_5-5" data-name="Elipse 5" cx="4.5" cy="4.5" r="4.5" transform="translate(6)" fill="#d8d8d8"/>
        <ellipse id="Elipse_6-5" data-name="Elipse 6" cx="5" cy="4" rx="5" ry="4" transform="translate(0 5)" fill="#d8d8d8"/>
        <ellipse id="Elipse_7-5" data-name="Elipse 7" cx="7.5" cy="3" rx="7.5" ry="3" transform="translate(4 9)" fill="#d8d8d8"/>
      </g>
    </g>
    <ellipse id="sunmoon" cx="45" cy="46" rx="45" ry="46" transform="translate(553 717.1)" fill="#fff"/>
    <g id="cloud1" transform="translate(614.52 761.393)">
      <g id="Grupo_11" data-name="Grupo 11" transform="translate(0 0)">
        <ellipse id="Elipse_1" data-name="Elipse 1" cx="16.251" cy="17.13" rx="16.251" ry="17.13" transform="translate(0 13.177)" fill="#efefef"/>
        <circle id="Elipse_2-2" data-name="Elipse 2" cx="16.69" cy="16.69" r="16.69" transform="translate(14.934 4.392)" fill="#efefef"/>
        <circle id="Elipse_3-6" data-name="Elipse 3" cx="16.69" cy="16.69" r="16.69" transform="translate(26.353)" fill="#efefef"/>
        <ellipse id="Elipse_4-6" data-name="Elipse 4" cx="16.69" cy="17.13" rx="16.69" ry="17.13" transform="translate(46.558 13.177)" fill="#efefef"/>
        <ellipse id="Elipse_5-6" data-name="Elipse 5" cx="25.036" cy="10.981" rx="25.036" ry="10.981" transform="translate(14.934 30.746)" fill="#efefef"/>
      </g>
      <g id="Grupo_10" data-name="Grupo 10" transform="translate(58.856 32.502)">
        <circle id="Elipse_1-2" data-name="Elipse 1" cx="6.149" cy="6.149" r="6.149" transform="translate(0 5.271)" fill="#fff"/>
        <ellipse id="Elipse_2-3" data-name="Elipse 2" cx="6.149" cy="6.588" rx="6.149" ry="6.588" transform="translate(6.149 0.878)" fill="#fff"/>
        <ellipse id="Elipse_3-7" data-name="Elipse 3" cx="7.028" cy="6.149" rx="7.028" ry="6.149" transform="translate(9.663 0)" fill="#fff"/>
        <ellipse id="Elipse_4-7" data-name="Elipse 4" cx="6.588" cy="6.149" rx="6.588" ry="6.149" transform="translate(18.447 5.271)" fill="#fff"/>
        <ellipse id="Elipse_5-7" data-name="Elipse 5" cx="9.663" cy="4.392" rx="9.663" ry="4.392" transform="translate(6.149 11.42)" fill="#fff"/>
      </g>
    </g>
    <g id="birds" transform="translate(50 33)">
      <g id="bird3">
        <path id="Trazado_10" data-name="Trazado 10" d="M3178.122,896.979c-.473-8.737-9.21-7.281-9.21-7.281" transform="translate(-1990)" fill="none" stroke="#cfcfcf" stroke-width="1"/>
        <path id="Trazado_11" data-name="Trazado 11" d="M3168.912,896.979c.473-8.737,9.21-7.281,9.21-7.281" transform="translate(-1981)" fill="none" stroke="#cfcfcf" stroke-width="1"/>
        <circle id="Elipse_14" data-name="Elipse 14" cx="1" cy="1" r="1" transform="translate(1187 895.2)" fill="#cfcfcf"/>
      </g>
      <g id="bird2" transform="translate(21 8)">
        <path id="Trazado_10-2" data-name="Trazado 10" d="M3178.122,896.979c-.473-8.737-9.21-7.281-9.21-7.281" transform="translate(-1990)" fill="none" stroke="#e5e5e5" stroke-width="1"/>
        <path id="Trazado_11-2" data-name="Trazado 11" d="M3168.912,896.979c.473-8.737,9.21-7.281,9.21-7.281" transform="translate(-1981)" fill="none" stroke="#e5e5e5" stroke-width="1"/>
        <circle id="Elipse_14-2" data-name="Elipse 14" cx="1" cy="1" r="1" transform="translate(1187 895.2)" fill="#e5e5e5"/>
      </g>
      <g id="bird1" transform="translate(-17 16)">
        <path id="Trazado_10-3" data-name="Trazado 10" d="M3178.122,896.979c-.473-8.737-9.21-7.281-9.21-7.281" transform="translate(-1990)" fill="none" stroke="#e5e5e5" stroke-width="1"/>
        <path id="Trazado_11-3" data-name="Trazado 11" d="M3168.912,896.979c.473-8.737,9.21-7.281,9.21-7.281" transform="translate(-1981)" fill="none" stroke="#e5e5e5" stroke-width="1"/>
        <circle id="Elipse_14-3" data-name="Elipse 14" cx="1" cy="1" r="1" transform="translate(1187 895.2)" fill="#e5e5e5"/>
      </g>
    </g>
  </g>
</svg>
