<?xml version="1.0" standalone="no"?><!DOCTYPE svg PUBLIC "-//W3C//DTD SVG 1.1//EN" "http://www.w3.org/Graphics/SVG/1.1/DTD/svg11.dtd"><svg t="1571962532466" class="icon" viewBox="0 0 1024 1024" version="1.1" xmlns="http://www.w3.org/2000/svg" p-id="6486" xmlns:xlink="http://www.w3.org/1999/xlink" width="200" height="200"><defs><style type="text/css"></style></defs><path d="M682.666667 341.333333c-37.546667 0-68.266667 30.72-68.266667 68.266667s30.72 68.266667 68.266667 68.266667 68.266667-30.72 68.266666-68.266667-30.72-68.266667-68.266666-68.266667z m0 119.466667c-29.013333 0-51.2-22.186667-51.2-51.2s22.186667-51.2 51.2-51.2 51.2 22.186667 51.2 51.2-22.186667 51.2-51.2 51.2z" p-id="6487"></path><path d="M831.146667 238.933333H192.853333c-11.946667 0-22.186667 10.24-22.186666 22.186667v501.76c0 11.946667 10.24 22.186667 22.186666 22.186667h638.293334c11.946667 0 22.186667-10.24 22.186666-22.186667V261.12c0-11.946667-10.24-22.186667-22.186666-22.186667zM269.653333 768L512 525.653333 754.346667 768H269.653333z m566.613334-5.12c0 3.413333-1.706667 5.12-5.12 5.12h-52.906667L523.946667 513.706667c-6.826667-6.826667-17.066667-6.826667-23.893334 0L245.76 768h-52.906667c-3.413333 0-5.12-1.706667-5.12-5.12V261.12c0-3.413333 1.706667-5.12 5.12-5.12h638.293334c3.413333 0 5.12 1.706667 5.12 5.12v501.76z" p-id="6488"></path></svg>