<svg xmlns="http://www.w3.org/2000/svg" width="483.162" height="465.666" viewBox="0 0 483.162 465.666">
  <g id="mancha" transform="translate(-1146.657 -266.959)">
    <path id="Trazado_20" data-name="Trazado 20" d="M5136.687,518.326c76.455,76.455,61.859-39.273,144.957,11.293,59.668,37.082-51.578,79.726-29.16,142.6,8.771,17.182,46.86,52.238,130.663,59.32,70.405,5.489,120.471-10.247,128.241-36.177,11.035-51.167-22.55-31.639-40.963-81.463-19.047-58.489,139.395-132.316,139.395-205.637s-162.58-149.571-234.8-140.575C5196.354,272.236,5092.862,462.2,5136.687,518.326Z" transform="translate(-3980)" fill="#e5e5e5"/>
    <path id="Trazado_21" data-name="Trazado 21" d="M21.4,0A21.4,21.4,0,1,1,0,21.4,21.4,21.4,0,0,1,21.4,0Z" transform="translate(1248.74 542.226)" fill="#fff"/>
  </g>
</svg>
