<?xml version="1.0" standalone="no"?><!DOCTYPE svg PUBLIC "-//W3C//DTD SVG 1.1//EN" "http://www.w3.org/Graphics/SVG/1.1/DTD/svg11.dtd"><svg t="1571961136571" class="icon" viewBox="0 0 1024 1024" version="1.1" xmlns="http://www.w3.org/2000/svg" p-id="1464" xmlns:xlink="http://www.w3.org/1999/xlink" width="200" height="200"><defs><style type="text/css"></style></defs><path d="M846.421333 267.136l-174.933333-174.933333A110.165333 110.165333 0 0 0 593.066667 59.733333H298.666667A153.6 153.6 0 0 0 145.066667 213.333333v597.333334A153.6 153.6 0 0 0 298.666667 964.266667h426.666666a153.6 153.6 0 0 0 153.6-153.6V345.6a110.165333 110.165333 0 0 0-32.512-78.464zM827.733333 810.666667a102.4 102.4 0 0 1-102.4 102.4H298.666667A102.4 102.4 0 0 1 196.266667 810.666667V213.333333A102.4 102.4 0 0 1 298.666667 110.933333h294.4a60.202667 60.202667 0 0 1 42.24 17.493334l174.933333 174.933333a60.202667 60.202667 0 0 1 17.493333 42.24zM409.6 396.245333v244.394667a25.6 25.6 0 0 1-51.2 0V396.245333a25.6 25.6 0 0 1 51.2 0z m128 128v116.394667a25.6 25.6 0 0 1-51.2 0v-116.394667a25.6 25.6 0 0 1 51.2 0z m128-85.333333v201.728a25.6 25.6 0 0 1-51.2 0v-201.728a25.6 25.6 0 0 1 51.2 0z" p-id="1465" fill="#2c2c2c"></path></svg>