<?xml version="1.0" standalone="no"?><!DOCTYPE svg PUBLIC "-//W3C//DTD SVG 1.1//EN" "http://www.w3.org/Graphics/SVG/1.1/DTD/svg11.dtd"><svg t="1571962989586" class="icon" viewBox="0 0 1024 1024" version="1.1" xmlns="http://www.w3.org/2000/svg" p-id="17619" xmlns:xlink="http://www.w3.org/1999/xlink" width="200" height="200"><defs><style type="text/css"></style></defs><path d="M302.133 181.856c32.053 0 62.188 12.482 84.853 35.147 22.665 22.665 35.147 52.799 35.147 84.853v120h-120c-32.053 0-62.188-12.482-84.853-35.147-22.665-22.665-35.147-52.8-35.147-84.853s12.482-62.188 35.147-84.853c22.665-22.665 52.8-35.147 84.853-35.147m0-60c-99.412 0-180 80.589-180 180s80.589 180 180 180h180v-180c0-99.412-80.589-180-180-180zM422.133 602.144v120c0 32.053-12.482 62.188-35.147 84.853-22.665 22.665-52.8 35.147-84.853 35.147s-62.188-12.482-84.853-35.147c-22.665-22.665-35.147-52.8-35.147-84.853s12.482-62.188 35.147-84.853c22.665-22.665 52.799-35.147 84.853-35.147h120m60-60h-180c-99.411 0-180 80.589-180 180s80.589 180 180 180 180-80.589 180-180v-180zM721.867 181.856c32.053 0 62.188 12.482 84.853 35.147 22.665 22.665 35.147 52.8 35.147 84.853s-12.482 62.188-35.147 84.853c-22.665 22.665-52.799 35.147-84.853 35.147h-120v-120c0-32.053 12.482-62.188 35.147-84.853 22.665-22.665 52.8-35.147 84.853-35.147m0-60c-99.412 0-180 80.589-180 180v180h180c99.411 0 180-80.589 180-180 0-99.412-80.589-180-180-180zM721.867 902.144c-99.411 0-180-80.589-180-180v-180h180c99.411 0 180 80.589 180 180 0 99.412-80.589 180-180 180z" fill="#2c2c2c" p-id="17620"></path></svg>