<?xml version="1.0" standalone="no"?><!DOCTYPE svg PUBLIC "-//W3C//DTD SVG 1.1//EN" "http://www.w3.org/Graphics/SVG/1.1/DTD/svg11.dtd"><svg t="1571962580407" class="icon" viewBox="0 0 1024 1024" version="1.1" xmlns="http://www.w3.org/2000/svg" p-id="7840" xmlns:xlink="http://www.w3.org/1999/xlink" width="200" height="200"><defs><style type="text/css"></style></defs><path d="M828.509091 116.363636h-139.636364V46.545455c0-18.618182-13.963636-37.236364-37.236363-37.236364s-37.236364 18.618182-37.236364 37.236364v69.818181H409.6V46.545455c0-18.618182-13.963636-37.236364-37.236364-37.236364s-37.236364 18.618182-37.236363 37.236364v69.818181h-139.636364c-46.545455 0-83.781818 37.236364-83.781818 83.781819v674.90909c0 46.545455 37.236364 83.781818 83.781818 83.781819h628.363636c46.545455 0 83.781818-37.236364 83.781819-83.781819V195.490909c0-41.890909-37.236364-79.127273-79.127273-79.127273z m9.309091 758.690909c0 4.654545-4.654545 9.309091-9.309091 9.309091H195.490909c-4.654545 0-9.309091-4.654545-9.309091-9.309091V195.490909c0-4.654545 4.654545-9.309091 9.309091-9.309091h139.636364v46.545455c0 18.618182 13.963636 37.236364 37.236363 37.236363s37.236364-18.618182 37.236364-37.236363V186.181818h209.454545v46.545455c0 18.618182 13.963636 37.236364 37.236364 37.236363s37.236364-13.963636 37.236364-37.236363V186.181818h139.636363s4.654545 4.654545 4.654546 9.309091v679.563636z" p-id="7841"></path><path d="M623.709091 418.909091l-167.563636 186.181818-69.818182-65.163636c-13.963636-13.963636-37.236364-13.963636-51.2 0-9.309091 18.618182-9.309091 41.890909 4.654545 51.2l97.745455 88.436363c4.654545 4.654545 13.963636 9.309091 23.272727 9.309091s18.618182-4.654545 23.272727-9.309091l190.836364-214.109091c13.963636-13.963636 13.963636-37.236364-4.654546-51.2-9.309091-9.309091-32.581818-9.309091-46.545454 4.654546z" p-id="7842"></path></svg>