<?xml version="1.0" standalone="no"?><!DOCTYPE svg PUBLIC "-//W3C//DTD SVG 1.1//EN" "http://www.w3.org/Graphics/SVG/1.1/DTD/svg11.dtd"><svg t="1571962889306" class="icon" viewBox="0 0 1024 1024" version="1.1" xmlns="http://www.w3.org/2000/svg" p-id="13696" xmlns:xlink="http://www.w3.org/1999/xlink" width="200" height="200"><defs><style type="text/css"></style></defs><path d="M36.571429 713.142857a201.142857 201.142857 0 0 1 214.272-200.704 274.358857 274.358857 0 0 1 512 74.386286A164.571429 164.571429 0 0 1 804.571429 913.261714L219.428571 914.285714c-102.509714-10.057143-182.857143-96.219429-182.857142-201.142857z m763.977142 163.803429a128 128 0 1 0-32.548571-253.952l-34.377143 4.900571-6.656-34.011428a237.787429 237.787429 0 0 0-443.757714-64.438858l-11.044572 20.992-23.661714-1.536a164.571429 164.571429 0 0 0-25.782857 328.118858l7.460571 0.694857h563.273143l7.094857-0.768zM484.754286 292.681143a201.142857 201.142857 0 0 1 333.385143 221.44l-0.512-0.073143a345.270857 345.270857 0 0 0-20.662858-43.812571 164.571429 164.571429 0 0 0-263.168-175.36 349.622857 349.622857 0 0 0-49.042285-2.194286zM640 73.142857a18.285714 18.285714 0 0 1 18.285714 18.285714v36.571429a18.285714 18.285714 0 1 1-36.571428 0v-36.571429a18.285714 18.285714 0 0 1 18.285714-18.285714z m245.686857 101.741714a18.285714 18.285714 0 0 1 0 25.892572l-25.892571 25.856a18.285714 18.285714 0 1 1-25.856-25.856l25.856-25.892572a18.285714 18.285714 0 0 1 25.892571 0zM987.428571 420.571429a18.285714 18.285714 0 0 1-18.285714 18.285714h-36.571428a18.285714 18.285714 0 1 1 0-36.571429h36.571428a18.285714 18.285714 0 0 1 18.285714 18.285715zM394.313143 174.884571a18.285714 18.285714 0 0 1 25.892571 0l25.856 25.892572a18.285714 18.285714 0 1 1-25.856 25.856l-25.892571-25.856a18.285714 18.285714 0 0 1 0-25.892572z" fill="#5E6163" p-id="13697"></path></svg>