<svg id="abstract" xmlns="http://www.w3.org/2000/svg" width="200" height="192.757" viewBox="0 0 200 192.757">
  <path id="Trazado_20" data-name="Trazado 20" d="M5130.809,371.009c31.648,31.648,25.606-16.257,60,4.675,24.7,15.35-21.35,33-12.07,59.026,3.63,7.112,19.4,21.623,54.086,24.555,29.144,2.272,49.868-4.242,53.083-14.975,4.568-21.18-9.334-13.1-16.955-33.72-7.884-24.211,57.7-54.77,57.7-85.121s-67.3-61.913-97.191-58.189C5155.508,269.144,5112.668,347.776,5130.809,371.009Z" transform="translate(-5126.657 -266.959)" fill="#e5e5e5"/>
  <path id="Trazado_21" data-name="Trazado 21" d="M10.079,0A10.079,10.079,0,1,1,0,10.079,10.079,10.079,0,0,1,10.079,0Z" transform="translate(41.69 112.353)" fill="#fff"/>
</svg>
