<svg xmlns="http://www.w3.org/2000/svg" width="194.061" height="168.328" viewBox="0 0 194.061 168.328"><g transform="translate(0.486 0.358)"><line y1="55.482" x2="56.982" transform="translate(13.496 0)" fill="none" stroke="#e5e5e5" stroke-width="1"/><line y1="55.482" x2="56.982" transform="translate(125.96 0)" fill="none" stroke="#e5e5e5" stroke-width="1"/><line x2="113.064" transform="translate(70.028 0.15)" fill="none" stroke="#e5e5e5" stroke-width="1"/><path d="M0,37.4" transform="translate(112.464 74.164)" fill="none" stroke="#e5e5e5" stroke-width="1"/><path d="M13.946,0,0,57.432" transform="translate(0 55.032)" fill="none" stroke="#e5e5e5" stroke-width="1"/><line x2="112.464" transform="translate(13.496 55.482)" fill="none" stroke="#e5e5e5" stroke-width="1"/><path d="M0,0,4.438,20.467l5.706,26.314" transform="translate(182.941 0)" fill="none" stroke="#e5e5e5" stroke-width="1"/><path d="M239.027,649.072l7.459-7.662,46.367-47.625.141-52.974s20.828-20.983,9.489-10.149-54.847,53.486-54.847,53.486L238.6,539.084Z" transform="translate(-112.489 -481.126)" fill="#e5e5e5"/><path d="M280.536,535.5l.417,112.45-112.993.031-.455-56.457h99.848Z" transform="translate(-154.412 -480.015)" fill="#cfcfcf"/><path d="M12.822.873H0" transform="translate(0.264 111.4)" fill="none" stroke="#e5e5e5" stroke-width="1"/></g></svg>