<?xml version="1.0" standalone="no"?><!DOCTYPE svg PUBLIC "-//W3C//DTD SVG 1.1//EN" "http://www.w3.org/Graphics/SVG/1.1/DTD/svg11.dtd"><svg t="1571963197675" class="icon" viewBox="0 0 1195 1024" version="1.1" xmlns="http://www.w3.org/2000/svg" p-id="22623" xmlns:xlink="http://www.w3.org/1999/xlink" width="233.3984375" height="200"><defs><style type="text/css"></style></defs><path d="M1044.579727 131.447868 932.776868 131.447868 895.509702 57.071838C873.532157 13.79401 862.127439 0.477544 820.976739 0.477544L373.768032 0.477544C332.587282 0.477544 319.001064 18.192246 299.233702 57.071838L261.966537 131.447868 150.162312 131.447868C67.833597 131.447868 1.092287 198.019251 1.092287 280.171199L1.092287 875.158917C1.092287 957.310867 67.833597 1023.91098 150.162312 1023.91098L1044.581096 1023.91098C1126.911177 1023.91098 1193.649753 957.312236 1193.649753 875.158917L1193.649753 280.171199C1193.649753 198.019251 1126.909809 131.447868 1044.579727 131.447868L1044.579727 131.447868ZM1119.115424 884.051156C1119.115424 925.142863 1085.731792 958.427184 1044.581093 958.427184L150.159579 958.427184C108.980196 958.427184 75.626617 925.142863 75.626617 884.051152L75.626615 289.063435C75.626615 248.003192 108.981561 214.690141 150.159578 214.690141L299.229603 214.690141 336.496768 140.340104C362.833213 97.065011 369.851713 65.961337 411.029729 65.961337L783.706842 65.961337C824.857539 65.961337 831.873307 97.065011 858.239805 140.340104L895.505603 214.690141 1044.576993 214.690141C1085.727693 214.690141 1119.111325 248.005929 1119.111325 289.063435L1119.111325 884.051152 1119.115424 884.051156 1119.115424 884.051156Z" p-id="22624"></path><path d="M597.37102 260.130835C432.712223 260.130835 299.229604 393.3379 299.229604 557.643165 299.229604 721.916966 432.712223 855.118554 597.37102 855.118554 762.029817 855.118554 895.511067 721.916966 895.511067 557.643165 895.511067 393.3379 762.029817 260.130835 597.37102 260.130835L597.37102 260.130835ZM597.37102 780.739789C473.861553 780.739789 373.768032 680.853985 373.768032 557.640428 373.768032 434.424132 473.861553 334.509601 597.37102 334.509601 720.850432 334.509601 820.974008 434.424132 820.974008 557.640428 820.975374 680.855354 720.851801 780.739789 597.37102 780.739789L597.37102 780.739789Z" p-id="22625"></path></svg>